<svg class="github-logo-small" width="50" height="50" viewBox="0 0 50 50" fill="none" xmlns="http://www.w3.org/2000/svg">
    <path
        d="M0 7.8125V42.1875C0 46.5022 3.49778 50 7.8125 50H42.1875C46.5022 50 50 46.5022 50 42.1875V7.8125C50 3.49778 46.5022 0 42.1875 0H7.8125C3.49778 0 0 3.49778 0 7.8125Z"
        fill="black" />
    <path fill-rule="evenodd" clip-rule="evenodd"
        d="M24.9618 12.5C18.081 12.5 12.5 18.081 12.5 24.9618C12.5 30.4664 16.0933 35.13 20.9862 36.8119C21.5979 36.8884 21.8272 36.5061 21.8272 36.2003C21.8272 35.8945 21.8272 35.13 21.8272 34.0596C18.3868 34.8242 17.6223 32.3777 17.6223 32.3777C17.0872 30.9251 16.2462 30.5428 16.2462 30.5428C15.0994 29.7783 16.3226 29.7783 16.3226 29.7783C17.5459 29.8547 18.2339 31.078 18.2339 31.078C19.3807 32.9893 21.1391 32.4541 21.8272 32.1483C21.9037 31.3073 22.2859 30.7722 22.5917 30.4664C19.8394 30.1606 16.9343 29.0902 16.9343 24.2737C16.9343 22.8976 17.393 21.8272 18.2339 20.9098C18.1575 20.6804 17.6988 19.3807 18.3868 17.6988C18.3868 17.6988 19.4572 17.393 21.8272 18.9985C22.8211 18.6927 23.8914 18.6162 24.9618 18.6162C26.0321 18.6162 27.1024 18.7691 28.0963 18.9985C30.4664 17.393 31.5367 17.6988 31.5367 17.6988C32.2248 19.3807 31.7661 20.6804 31.6896 20.9862C32.4541 21.8272 32.9893 22.974 32.9893 24.3502C32.9893 29.1667 30.0841 30.1606 27.3318 30.4664C27.7905 30.8486 28.1728 31.6132 28.1728 32.7599C28.1728 34.4419 28.1728 35.7416 28.1728 36.2003C28.1728 36.5061 28.4021 36.8884 29.0138 36.8119C33.9832 35.13 37.5 30.4664 37.5 24.9618C37.4235 18.081 31.8425 12.5 24.9618 12.5Z"
        fill="white" />
</svg>