<svg width="100" height="100" viewBox="0 0 100 100" fill="none" xmlns="http://www.w3.org/2000/svg">
<path d="M0 15.625V84.375C0 93.0044 6.99555 100 15.625 100H84.375C93.0044 100 100 93.0044 100 84.375V15.625C100 6.99555 93.0044 0 84.375 0H15.625C6.99555 0 0 6.99555 0 15.625Z" fill="black"/>
<path fill-rule="evenodd" clip-rule="evenodd" d="M49.9235 25C36.1621 25 25 36.1621 25 49.9235C25 60.9327 32.1865 70.2599 41.9725 73.6239C43.1957 73.7768 43.6544 73.0122 43.6544 72.4006C43.6544 71.789 43.6544 70.2599 43.6544 68.1193C36.7737 69.6483 35.2446 64.7554 35.2446 64.7554C34.1743 61.8502 32.4924 61.0856 32.4924 61.0856C30.1988 59.5566 32.6453 59.5566 32.6453 59.5566C35.0917 59.7095 36.4679 62.156 36.4679 62.156C38.7615 65.9786 42.2783 64.9083 43.6544 64.2966C43.8073 62.6147 44.5719 61.5443 45.1835 60.9327C39.6789 60.3211 33.8685 58.1804 33.8685 48.5474C33.8685 45.7951 34.7859 43.6544 36.4679 41.8196C36.315 41.3609 35.3976 38.7615 36.7737 35.3976C36.7737 35.3976 38.9144 34.7859 43.6544 37.9969C45.6422 37.3853 47.7829 37.2324 49.9235 37.2324C52.0642 37.2324 54.2049 37.5382 56.1927 37.9969C60.9327 34.7859 63.0734 35.3976 63.0734 35.3976C64.4495 38.7615 63.5321 41.3609 63.3792 41.9725C64.9083 43.6544 65.9786 45.948 65.9786 48.7003C65.9786 58.3333 60.1682 60.3211 54.6636 60.9327C55.581 61.6972 56.3456 63.2263 56.3456 65.5199C56.3456 68.8838 56.3456 71.4832 56.3456 72.4006C56.3456 73.0122 56.8043 73.7768 58.0275 73.6239C67.9664 70.2599 75 60.9327 75 49.9235C74.8471 36.1621 63.685 25 49.9235 25Z" fill="white"/>
</svg>
